<svg version="1.1" xmlns="http://www.w3.org/2000/svg" viewBox="0 0 439.5805434927345 164.96822798728942" width="439.5805434927345" height="164.96822798728942">
  <!-- svg-source:excalidraw -->
  
  <defs>
    <style class="style-fonts">
      @font-face {
        font-family: "Virgil";
        src: url("https://excalidraw.com/Virgil.woff2");
      }
      @font-face {
        font-family: "Cascadia";
        src: url("https://excalidraw.com/Cascadia.woff2");
      }
      @font-face {
        font-family: "Assistant";
        src: url("https://excalidraw.com/Assistant-Regular.woff2");
      }
    </style>
    
  </defs>
  <g stroke-linecap="round"><g transform="translate(427.2277301765978 13.931582541316743) rotate(0 -206.5 70.5)"><path d="M2.35 -0.95 C-28.18 18.01, -115.54 88.45, -185.03 111.77 C-254.51 135.1, -376.26 134.49, -414.57 139.01 M0.19 -3.93 C-30.64 15.58, -118.25 90.58, -187.82 114.74 C-257.39 138.9, -379.32 136.77, -417.23 141.04" stroke="#ffffff" stroke-width="4" fill="none"></path></g><g transform="translate(427.2277301765978 13.931582541316743) rotate(0 -206.5 70.5)"><path d="M-394.93 130.44 C-400.58 132.56, -406.5 134.66, -418.73 141.67 M-393.75 130.66 C-401.72 134.69, -410.16 137.82, -417.55 140.13" stroke="#ffffff" stroke-width="4" fill="none"></path></g><g transform="translate(427.2277301765978 13.931582541316743) rotate(0 -206.5 70.5)"><path d="M-393.97 147.52 C-399.72 145.64, -405.87 143.75, -418.73 141.67 M-392.79 147.73 C-401.06 145.96, -409.83 143.29, -417.55 140.13" stroke="#ffffff" stroke-width="4" fill="none"></path></g></g><mask></mask></svg>