<?xml version="1.0" encoding="UTF-8"?>
<svg width="194" height="194" preserveAspectRatio="xMidYMid" version="1.0" viewBox="0 0 145.5 145.5" xmlns="http://www.w3.org/2000/svg" zoomAndPan="magnify">
 <defs>
  <clipPath id="da1ac2a37b">
   <path d="m73 13h103v67h-103z"/>
  </clipPath>
  <clipPath id="c91a57b0e0">
   <path d="m31 30h69v96.9h-69z"/>
  </clipPath>
  <clipPath id="6f1dbb780d">
   <path d="m93.7 43.1h82.1v82.1h-82.1z"/>
  </clipPath>
  <clipPath id="d61775d055">
   <path d="m167 61-6.42-5.93h-3.75l-1.45-7.05c-0.141-0.688-0.391-1.33-0.754-1.93-0.367-0.602-0.82-1.12-1.36-1.57-0.543-0.445-1.15-0.785-1.81-1.02-0.664-0.234-1.34-0.355-2.05-0.355h-29.2c-0.703 0-1.39 0.117-2.05 0.355-0.664 0.234-1.27 0.574-1.81 1.02-0.543 0.445-1 0.969-1.36 1.57-0.363 0.605-0.617 1.25-0.758 1.94l-1.45 7.05h-3.74l-6.42 5.93c-1.39 1.29-2.64 2.71-3.74 4.27-1.1 1.55-2.03 3.2-2.8 4.94-0.762 1.74-1.34 3.54-1.73 5.41-0.391 1.86-0.586 3.74-0.59 5.64v20.4c0 0.398 0.0391 0.797 0.117 1.19 0.0781 0.395 0.195 0.773 0.348 1.14 0.156 0.371 0.344 0.723 0.566 1.06 0.223 0.332 0.477 0.641 0.758 0.926 0.285 0.285 0.594 0.535 0.926 0.758 0.336 0.227 0.688 0.414 1.06 0.566 0.371 0.152 0.754 0.27 1.14 0.348 0.395 0.0781 0.793 0.117 1.2 0.117h12.7l-4.36 17.4h53.2l-4.37-17.4h12.7c0.398 0 0.797-0.0391 1.19-0.117 0.395-0.0781 0.777-0.195 1.14-0.348 0.371-0.152 0.727-0.34 1.06-0.566 0.332-0.223 0.641-0.473 0.926-0.758s0.535-0.594 0.762-0.926c0.223-0.336 0.41-0.688 0.562-1.06 0.152-0.371 0.27-0.75 0.348-1.14 0.0781-0.395 0.117-0.793 0.117-1.19v-20.4c0-1.9-0.199-3.78-0.59-5.64s-0.965-3.66-1.73-5.41c-0.762-1.74-1.7-3.39-2.8-4.94s-2.35-2.97-3.74-4.27zm-49.3-12.3c0.0586-0.293 0.168-0.57 0.324-0.828s0.352-0.484 0.586-0.672c0.234-0.191 0.492-0.34 0.777-0.438 0.285-0.102 0.578-0.152 0.879-0.152h29.2c0.301 0 0.594 0.0508 0.875 0.152 0.285 0.0977 0.547 0.246 0.777 0.438 0.234 0.188 0.43 0.414 0.586 0.672s0.266 0.535 0.328 0.828l1.31 6.35h-36.9zm-12.7 14.8 5.41-5h48.8l5.41 5c1.72 1.6 3.18 3.41 4.38 5.43 1.19 2.02 2.07 4.17 2.64 6.45-0.617-0.203-1.25-0.305-1.9-0.305h-69.8c-0.652 0-1.29 0.102-1.9 0.305 0.57-2.28 1.45-4.43 2.64-6.45 1.2-2.02 2.65-3.83 4.37-5.43zm48.2 34.3h-36.8c-0.27 0-0.523-0.0547-0.773-0.156-0.246-0.102-0.465-0.246-0.652-0.438-0.188-0.188-0.332-0.406-0.438-0.652-0.102-0.246-0.152-0.504-0.152-0.773 0-0.266 0.0508-0.523 0.152-0.77 0.105-0.246 0.25-0.465 0.438-0.652 0.188-0.191 0.406-0.336 0.652-0.438 0.25-0.105 0.504-0.156 0.773-0.156h36.8c0.266 0 0.523 0.0508 0.77 0.156 0.246 0.102 0.465 0.246 0.652 0.438 0.191 0.188 0.336 0.406 0.438 0.652s0.152 0.504 0.152 0.77c0 0.27-0.0508 0.527-0.152 0.773-0.102 0.246-0.246 0.465-0.438 0.652-0.188 0.191-0.406 0.336-0.652 0.438s-0.504 0.156-0.77 0.156zm-40.5 23.8 5.09-20.4h34l5.09 20.4zm59.7-20c0 0.348-0.0664 0.68-0.199 1-0.133 0.32-0.32 0.605-0.566 0.852s-0.531 0.434-0.852 0.566c-0.32 0.133-0.652 0.199-1 0.199h-13.6l-0.828-3.35c0.586-0.246 1.12-0.582 1.59-1.01 0.469-0.43 0.855-0.926 1.15-1.49 0.297-0.562 0.492-1.16 0.586-1.79 0.0898-0.633 0.0742-1.26-0.0508-1.88s-0.352-1.21-0.68-1.75c-0.328-0.543-0.738-1.02-1.23-1.42-0.492-0.402-1.04-0.711-1.64-0.926-0.598-0.215-1.21-0.32-1.85-0.32h-36.8c-0.637 0-1.26 0.105-1.86 0.316-0.602 0.215-1.15 0.523-1.64 0.926s-0.902 0.875-1.23 1.42c-0.328 0.547-0.555 1.13-0.68 1.75-0.129 0.625-0.145 1.25-0.0547 1.88 0.0937 0.629 0.289 1.23 0.586 1.79 0.297 0.562 0.684 1.06 1.15 1.49 0.469 0.43 1 0.766 1.59 1.01l-0.836 3.35h-13.6c-0.348 0-0.684-0.0664-1-0.199-0.32-0.133-0.605-0.32-0.852-0.566-0.242-0.246-0.434-0.531-0.566-0.852-0.133-0.32-0.199-0.652-0.199-1v-20.4c0-0.348 0.0664-0.68 0.199-1 0.133-0.32 0.324-0.605 0.566-0.852 0.246-0.246 0.531-0.434 0.852-0.566 0.32-0.133 0.656-0.199 1-0.199h69.8c0.348 0 0.68 0.0664 1 0.199 0.32 0.133 0.605 0.32 0.852 0.566 0.246 0.246 0.434 0.531 0.566 0.852 0.133 0.32 0.199 0.652 0.199 1z"/>
  </clipPath>
 </defs>
 <g transform="translate(-10.267 9.3176)">
  <path d="m33.5 76.4c-7.07-26.7 1.83-52.9 20.5-67.2l3.96 15c-14.7 14-21.2 36.6-15.1 59.6 4.12 15.6 13.3 28.6 25 37.3-16.1-8.88-29.1-24.8-34.4-44.7z" fill="#ce0000" fill-rule="evenodd"/>
  <path d="m51 46.1c9.56-26.4 31.9-43.9 55.4-46.1l-5.36 14.8c-20 4.02-38.3 19.7-46.6 42.5-5.58 15.4-5.55 31.4-1 45-8.07-16.2-9.54-36.6-2.41-56.3z" fill="#04153b" fill-rule="evenodd"/>
  <g transform="translate(-20.4 -.0352)" clip-path="url(#da1ac2a37b)">
   <path d="m104 29.8c22.9-17.4 51.2-20.4 71.6-9.79l-12.9 9.77c-18.7-7.22-42.7-3.59-62.4 11.4-13.4 10.2-22.5 23.7-26.6 37.8 2.62-18 13.1-36.2 30.2-49.2z" fill="#ce0000" fill-rule="evenodd"/>
  </g>
  <g transform="translate(-20.4 -.0352)" clip-path="url(#c91a57b0e0)">
   <path d="m47.2 99.3c-18.1-21.5-20.8-48.5-9.11-68.5l10.2 12.1c-8.04 18.1-4.61 41 11 59.6 10.6 12.6 24.9 20.9 39.8 24.4-19.2-2.02-38.4-11.6-51.9-27.6z" fill="#04153b" fill-rule="evenodd"/>
  </g>
  <g transform="translate(-20.4 -.0352)" clip-path="url(#6f1dbb780d)">
   <g clip-path="url(#d61775d055)">
    <path d="m93.7 43.1v82.1h82.1v-82.1z" fill="#04153b"/>
   </g>
  </g>
  <g transform="translate(-20.4 -.0352)" fill="#ce0000"></g>
  <g transform="translate(-20.4 -.0352)" fill="#04153b"></g>
  <g display="none">
   <g transform="translate(-20.4 -.0352)" fill="#ce0000">
    <g transform="translate(18.9,150)">
     <path d="m9.45-14.1c0.883 0 1.66 0.203 2.34 0.609 0.688 0.398 1.22 0.949 1.61 1.66 0.383 0.711 0.578 1.5 0.578 2.38v0.266c0 0.875-0.195 1.67-0.578 2.39-0.387 0.711-0.922 1.27-1.61 1.67-0.68 0.406-1.46 0.609-2.34 0.609h-3.39v4.56h-4.55v-14.1zm-3.39 6.27h1.88c0.477 0 0.836-0.117 1.08-0.359 0.238-0.25 0.359-0.586 0.359-1.02v-0.172c0-0.438-0.121-0.773-0.359-1.02-0.242-0.238-0.602-0.359-1.08-0.359h-1.88z"/>
    </g>
    <g transform="translate(33.7,150)">
     <path d="m15-9.81c0 0.867-0.234 1.65-0.703 2.34-0.469 0.699-1.15 1.21-2.03 1.55l3.14 5.92h-5.09l-2.52-5.16h-1.69v5.16h-4.55v-14.1h8.66c1.02 0 1.89 0.199 2.61 0.594 0.719 0.387 1.26 0.914 1.62 1.58 0.363 0.656 0.547 1.38 0.547 2.16zm-4.62 0.188c0-0.363-0.125-0.672-0.375-0.922s-0.555-0.375-0.906-0.375h-2.98v2.61h2.98c0.352 0 0.656-0.125 0.906-0.375s0.375-0.562 0.375-0.938z"/>
    </g>
    <g transform="translate(49.7,150)">
     <path d="m1.73 0v-14.1h4.53v14.1z"/>
    </g>
    <g transform="translate(57.7,150)">
     <path d="m11.6 0-5.94-6.88v6.88h-4.19v-14.1h3.97l5.95 6.97v-6.97h4.17v14.1z"/>
    </g>
    <g transform="translate(74.8,150)">
     <path d="m9.67-10.5v10.5h-4.55v-10.5h-4.66v-3.61h13.8v3.61z"/>
    </g>
    <g transform="translate(96.5,150)">
     <path d="m8.27-14.4c2.09 0 3.75 0.527 4.97 1.58 1.23 1.04 1.84 2.54 1.84 4.48h-4.34c0-0.82-0.219-1.47-0.656-1.95-0.43-0.477-1.04-0.719-1.83-0.719-0.918 0-1.59 0.289-2.03 0.859-0.43 0.574-0.641 1.38-0.641 2.41v1.31c0 1.02 0.211 1.82 0.641 2.41 0.438 0.586 1.1 0.875 1.98 0.875 0.875 0 1.54-0.223 1.98-0.672 0.457-0.457 0.688-1.1 0.688-1.92h4.2c0 1.93-0.594 3.41-1.78 4.44s-2.87 1.55-5.03 1.55c-2.42 0-4.25-0.613-5.48-1.84-1.24-1.24-1.86-3.07-1.86-5.48s0.617-4.22 1.86-5.45c1.24-1.24 3.07-1.86 5.48-1.86z"/>
    </g>
    <g transform="translate(112,150)">
     <path d="m8.55-14.4c2.45 0 4.33 0.625 5.66 1.88 1.33 1.24 2 3.05 2 5.44s-0.668 4.2-2 5.45c-1.32 1.25-3.21 1.88-5.66 1.88-2.44 0-4.32-0.617-5.64-1.86-1.32-1.24-1.98-3.06-1.98-5.47 0-2.39 0.66-4.21 1.98-5.45s3.2-1.86 5.64-1.86zm0 3.39c-0.969 0-1.71 0.297-2.22 0.891-0.5 0.586-0.75 1.38-0.75 2.38v1.31c0 1 0.25 1.8 0.75 2.39 0.508 0.594 1.25 0.891 2.22 0.891 0.977 0 1.72-0.297 2.23-0.891 0.52-0.594 0.781-1.39 0.781-2.39v-1.31c0-1-0.262-1.79-0.781-2.38-0.512-0.594-1.26-0.891-2.23-0.891z"/>
    </g>
    <g transform="translate(130,150)">
     <path d="m0.797-4.03v-3.25h5.25v3.25z"/>
    </g>
    <g transform="translate(136,150)">
     <path d="m11.6 0-5.94-6.88v6.88h-4.19v-14.1h3.97l5.95 6.97v-6.97h4.17v14.1z"/>
    </g>
    <g transform="translate(154,150)">
     <path d="m1.52-14.1h12.2v3.39h-7.69v1.95h6.58v3.25h-6.58v2.16h7.84v3.39h-12.4z"/>
    </g>
    <g transform="translate(168,150)">
     <path d="m9.67-10.5v10.5h-4.55v-10.5h-4.66v-3.61h13.8v3.61z"/>
    </g>
   </g>
   <g transform="translate(-20.4 -.0352)" fill="#04153b">
    <g transform="translate(26.8,165)">
     <path d="m4.73-9.17c0.656 0 1.22 0.121 1.69 0.359 0.469 0.242 0.816 0.578 1.05 1.02 0.238 0.43 0.359 0.93 0.359 1.5 0 0.574-0.121 1.08-0.359 1.52-0.23 0.43-0.578 0.762-1.05 1-0.469 0.242-1.03 0.359-1.69 0.359h-1.73v3.42h-1.81v-9.17zm-0.234 4.31c1.01 0 1.52-0.477 1.52-1.44 0-0.957-0.508-1.44-1.52-1.44h-1.5v2.88z"/>
    </g>
    <g transform="translate(39.5,165)">
     <path d="m1.19 0v-9.17h3.69c0.945 0 1.66 0.219 2.14 0.656 0.488 0.438 0.734 1.04 0.734 1.81 0 0.555-0.141 1.01-0.422 1.38-0.281 0.355-0.703 0.625-1.27 0.812v0.125c0.281 0.125 0.508 0.312 0.688 0.562 0.188 0.242 0.359 0.605 0.516 1.09l0.906 2.73h-1.86l-0.891-2.73c-0.0938-0.281-0.199-0.492-0.312-0.641-0.117-0.156-0.262-0.266-0.438-0.328-0.18-0.0703-0.414-0.109-0.703-0.109h-0.969v3.81zm3.47-5.25c0.875 0 1.31-0.41 1.31-1.23 0-0.832-0.438-1.25-1.31-1.25h-1.66v2.48z"/>
    </g>
    <g transform="translate(52.3,165)">
     <path d="m3 0h-1.81v-9.17h1.81z"/>
    </g>
    <g transform="translate(60.8,165)">
     <path d="m2.95 0h-1.77v-9.17h2.08l3.69 5.91 0.156-0.0156v-5.89h1.75v9.17h-1.86l-3.89-6.31-0.156 0.0312z"/>
    </g>
    <g transform="translate(75.1,165)">
     <path d="m7.34-9.17v1.53h-2.64v7.64h-1.81v-7.64h-2.64v-1.53z"/>
    </g>
    <g transform="translate(87,165)">
     <path d="m3-4.03v2.52h4.38v1.52h-6.19v-9.17h6.09v1.52h-4.28v2.16h3.73v1.47z"/>
    </g>
    <g transform="translate(99.1,165)">
     <path d="m1.19 0v-9.17h3.69c0.945 0 1.66 0.219 2.14 0.656 0.488 0.438 0.734 1.04 0.734 1.81 0 0.555-0.141 1.01-0.422 1.38-0.281 0.355-0.703 0.625-1.27 0.812v0.125c0.281 0.125 0.508 0.312 0.688 0.562 0.188 0.242 0.359 0.605 0.516 1.09l0.906 2.73h-1.86l-0.891-2.73c-0.0938-0.281-0.199-0.492-0.312-0.641-0.117-0.156-0.262-0.266-0.438-0.328-0.18-0.0703-0.414-0.109-0.703-0.109h-0.969v3.81zm3.47-5.25c0.875 0 1.31-0.41 1.31-1.23 0-0.832-0.438-1.25-1.31-1.25h-1.66v2.48z"/>
    </g>
    <g transform="translate(119,165)">
     <path d="m1.19 0v-9.17h1.81v3.75h0.203l3.06-3.75h1.86v0.156l-3.38 4.17 3.72 4.69v0.156h-2.05l-3.22-3.95h-0.203v3.95z"/>
    </g>
    <g transform="translate(132,165)">
     <path d="m3 0h-1.81v-9.17h1.81z"/>
    </g>
    <g transform="translate(140,165)">
     <path d="m5 0.125c-0.844 0-1.59-0.164-2.23-0.5-0.637-0.344-1.14-0.867-1.5-1.58-0.367-0.707-0.547-1.58-0.547-2.62 0-1.05 0.18-1.93 0.547-2.62 0.363-0.707 0.863-1.23 1.5-1.58 0.645-0.344 1.39-0.516 2.23-0.516s1.58 0.172 2.22 0.516c0.633 0.336 1.13 0.855 1.5 1.56 0.363 0.711 0.547 1.59 0.547 2.64 0 1.04-0.184 1.92-0.547 2.62-0.367 0.711-0.867 1.23-1.5 1.58-0.637 0.336-1.38 0.5-2.22 0.5zm0-1.56c0.781 0 1.38-0.25 1.78-0.75s0.609-1.3 0.609-2.39c0-1.1-0.203-1.91-0.609-2.41s-1-0.75-1.78-0.75-1.38 0.25-1.8 0.75c-0.406 0.5-0.609 1.3-0.609 2.41 0 1.09 0.203 1.89 0.609 2.39 0.414 0.5 1.02 0.75 1.8 0.75z"/>
    </g>
    <g transform="translate(155,165)">
     <path d="m4.06 0.125c-0.637 0-1.2-0.0781-1.7-0.234-0.492-0.156-0.902-0.359-1.23-0.609-0.324-0.258-0.574-0.539-0.75-0.844l0.984-1.22h0.172c0.27 0.418 0.617 0.746 1.05 0.984 0.426 0.242 0.922 0.359 1.48 0.359 0.488 0 0.852-0.0977 1.09-0.297 0.25-0.207 0.375-0.492 0.375-0.859 0-0.219-0.043-0.398-0.125-0.547-0.0742-0.145-0.203-0.27-0.391-0.375-0.188-0.102-0.438-0.191-0.75-0.266l-1.17-0.266c-0.824-0.188-1.44-0.5-1.84-0.938s-0.609-1-0.609-1.7c0-0.52 0.129-0.973 0.391-1.36 0.258-0.395 0.633-0.703 1.12-0.922 0.5-0.219 1.09-0.328 1.78-0.328 0.707 0 1.31 0.0938 1.81 0.281 0.508 0.18 0.938 0.461 1.28 0.844l-0.891 1.23h-0.156c-0.262-0.27-0.559-0.473-0.891-0.609-0.336-0.133-0.719-0.203-1.16-0.203-0.492 0-0.867 0.0898-1.12 0.266-0.262 0.18-0.391 0.418-0.391 0.719 0 0.293 0.0859 0.527 0.266 0.703 0.188 0.168 0.504 0.297 0.953 0.391l1.2 0.25c0.883 0.188 1.52 0.512 1.92 0.969 0.406 0.449 0.609 1.03 0.609 1.75 0 0.574-0.125 1.07-0.375 1.5-0.242 0.418-0.609 0.746-1.11 0.984-0.492 0.227-1.1 0.344-1.83 0.344z"/>
    </g>
    <g transform="translate(167,165)">
     <path d="m1.19 0v-9.17h1.81v3.75h0.203l3.06-3.75h1.86v0.156l-3.38 4.17 3.72 4.69v0.156h-2.05l-3.22-3.95h-0.203v3.95z"/>
    </g>
   </g>
  </g>
 </g>
</svg>
